<svg width="92" height="114" viewBox="0 0 92 114" fill="none" xmlns="http://www.w3.org/2000/svg">
<path d="M10.3914 0.782715C37.2505 0.782715 64.1096 0.782715 91.7827 0.782715C91.7827 1.72967 91.7827 2.67663 91.7827 3.65228C91.4666 3.81033 91.2131 3.8267 90.861 3.86271C86.841 4.19436 86.841 4.19436 83.4349 6.13054C81.4406 8.77878 81.7182 13.2201 81.7218 16.366C81.7215 16.5725 81.7212 16.7789 81.7209 16.9854C81.7201 17.5459 81.7201 18.1064 81.7202 18.6669C81.7203 19.2741 81.7195 19.8813 81.7189 20.4885C81.7178 21.6758 81.7175 22.863 81.7174 24.0503C81.7174 25.0167 81.7171 25.9832 81.7167 26.9496C81.7155 29.6969 81.7149 32.4442 81.715 35.1915C81.715 35.3393 81.715 35.4871 81.715 35.6393C81.715 35.7873 81.715 35.9353 81.715 36.0877C81.7151 38.4827 81.7139 40.8776 81.712 43.2725C81.7101 45.7388 81.7092 48.205 81.7094 50.6713C81.7094 52.053 81.7091 53.4347 81.7076 54.8165C81.7064 55.9934 81.7062 57.1704 81.707 58.3474C81.7075 58.9462 81.7075 59.545 81.7063 60.1438C81.3302 66.7376 81.3302 66.7376 83.4119 72.6691C85.6238 74.5712 89.0385 74.7088 91.7827 75.0001C91.7827 75.9901 91.7827 76.9801 91.7827 78.0001C88.4683 78.0001 85.154 78.0001 81.7392 78.0001C81.7392 82.1753 81.7392 86.3505 81.7392 90.6523C54.8801 90.6523 28.0209 90.6523 0.3479 90.6523C0.3479 89.7053 0.3479 88.7584 0.3479 87.7827C0.546976 87.7504 0.746053 87.7181 0.951161 87.6849C1.17838 87.6465 1.4056 87.608 1.63276 87.5693C1.83351 87.5353 2.03436 87.5019 2.23526 87.4688C5.87652 86.9652 5.87652 86.9652 8.78642 84.9238C10.7733 81.7532 10.3 77.132 10.295 73.5483C10.2944 72.9121 10.2954 72.2759 10.2961 71.6398C10.2972 70.3971 10.297 69.1545 10.2962 67.9118C10.2956 66.9011 10.2956 65.8903 10.2959 64.8796C10.2959 64.663 10.2959 64.663 10.296 64.442C10.2961 64.1485 10.2961 63.8551 10.2962 63.5617C10.297 60.8167 10.2961 58.0717 10.2947 55.3267C10.2935 52.9761 10.2938 50.6256 10.295 48.2751C10.2964 45.539 10.2969 42.803 10.2961 40.0669C10.296 39.7747 10.2959 39.4824 10.2959 39.1901C10.2958 39.0464 10.2958 38.9026 10.2957 38.7545C10.2955 37.746 10.2959 36.7375 10.2965 35.729C10.2972 34.4985 10.297 33.268 10.2956 32.0375C10.295 31.4108 10.2947 30.7841 10.2956 30.1575C10.5456 24.3232 10.5456 24.3232 8.67127 18.9865C6.50694 17.0146 3.13077 16.7722 0.3479 16.4349C0.3479 15.4879 0.3479 14.541 0.3479 13.5653C3.66225 13.5653 6.9766 13.5653 10.3914 13.5653C10.3914 9.34706 10.3914 5.1288 10.3914 0.782715ZM13.3914 3.65228C13.3914 6.92358 13.3914 10.1949 13.3914 13.5653C22.7318 13.5653 32.0722 13.5653 41.6957 13.5653C41.6957 14.5123 41.6957 15.4592 41.6957 16.4349C41.3998 16.4483 41.1039 16.4618 40.799 16.4756C38.3681 16.6173 35.1052 16.9699 33.3071 18.7746C30.9693 21.6403 31.5038 27.0015 31.4861 30.479C31.4854 30.6161 31.4846 30.7532 31.4839 30.8944C31.4772 32.1807 31.4731 33.4669 31.4721 34.7532C31.4715 35.4646 31.4683 36.176 31.4636 36.8874C31.4624 37.1542 31.462 37.4211 31.4627 37.6879C31.4718 41.3221 30.4385 44.7084 28.1917 47.5991C27.9749 47.8499 27.9749 47.8499 28.0001 48.1305C28.3527 47.9601 28.6836 47.7742 29.013 47.5624C31.3155 46.1033 33.9718 44.728 36.7672 44.7212C36.9272 44.7205 37.0871 44.7198 37.2519 44.7191C37.4275 44.7189 37.6031 44.7188 37.7786 44.7187C37.9649 44.7181 38.1512 44.7174 38.3374 44.7167C38.7378 44.7152 39.1381 44.7141 39.5384 44.7133C40.1729 44.7119 40.8074 44.7092 41.4418 44.7063C43.2457 44.6983 45.0497 44.6912 46.8536 44.6869C47.8505 44.6845 48.8475 44.6807 49.8444 44.6754C50.371 44.6727 50.8976 44.6706 51.4242 44.6703C51.9205 44.6701 52.4167 44.668 52.9129 44.6646C53.1791 44.6632 53.4453 44.6637 53.7114 44.6643C55.7626 44.6461 57.3648 44.249 58.8698 42.8388C60.0769 41.5811 60.4994 40.1853 60.4958 38.4625C60.4961 38.358 60.4964 38.2534 60.4967 38.1457C60.4975 37.7964 60.4974 37.4472 60.4973 37.0979C60.4977 36.8469 60.4981 36.5959 60.4986 36.345C60.4998 35.6633 60.5001 34.9816 60.5002 34.2999C60.5002 33.8728 60.5005 33.4457 60.5009 33.0186C60.5021 31.525 60.5026 30.0314 60.5025 28.5378C60.5024 27.152 60.5038 25.7662 60.5059 24.3805C60.5076 23.1866 60.5083 21.9928 60.5082 20.7989C60.5082 20.0878 60.5085 19.3767 60.5099 18.6656C60.8838 11.949 60.8838 11.949 58.5396 5.97157C57.8035 5.35791 57.0175 4.9689 56.1088 4.67945C55.9562 4.62996 55.9562 4.62996 55.8006 4.57946C54.8939 4.2948 53.9932 4.10373 53.0549 3.95634C52.8212 3.91927 52.5879 3.88041 52.3546 3.8412C50.6745 3.59211 48.9948 3.61668 47.2997 3.622C46.8434 3.62314 46.3871 3.62275 45.9309 3.62255C45.1427 3.62241 44.3546 3.62322 43.5665 3.6247C42.427 3.62683 41.2875 3.6275 40.148 3.62783C38.2987 3.62839 36.4494 3.63013 34.6002 3.6326C32.8051 3.635 31.01 3.63684 29.2149 3.63795C29.104 3.63802 28.9931 3.63809 28.8789 3.63816C28.3226 3.6385 27.7662 3.63883 27.2099 3.63915C22.6037 3.64185 17.9976 3.64666 13.3914 3.65228ZM63.9919 47.3316C61.2328 49.8529 57.4645 50.8874 53.8105 50.8902C53.6253 50.8909 53.44 50.8915 53.2548 50.8922C52.8575 50.8937 52.4603 50.8948 52.063 50.8957C51.4335 50.8971 50.804 50.8997 50.1745 50.9026C48.3849 50.9106 46.5953 50.9177 44.8058 50.922C43.8162 50.9244 42.8265 50.9282 41.8369 50.9335C41.3143 50.9362 40.7917 50.9383 40.2691 50.9386C39.7771 50.9388 39.285 50.9409 38.793 50.9444C38.5288 50.9457 38.2646 50.9452 38.0004 50.9446C36.0591 50.9621 34.5436 51.4071 33.1033 52.7447C31.9742 53.9548 31.5068 55.5682 31.5044 57.194C31.5038 57.3619 31.5033 57.5299 31.5027 57.7029C31.5027 57.8874 31.5028 58.072 31.5029 58.2566C31.5025 58.4523 31.502 58.6481 31.5015 58.8438C31.5004 59.3751 31.5001 59.9065 31.5 60.4379C31.4999 60.7716 31.4996 61.1054 31.4993 61.4391C31.4981 62.6089 31.4975 63.7787 31.4976 64.9484C31.4977 66.0292 31.4964 67.11 31.4943 68.1908C31.4926 69.1248 31.4919 70.0588 31.492 70.9928C31.492 71.5478 31.4917 72.1027 31.4902 72.6577C31.1118 79.5224 31.1118 79.5224 33.4783 85.5653C35.7443 87.8313 40.5206 87.8203 43.4616 87.8316C43.8825 87.8314 44.3033 87.8301 44.7242 87.8281C45.1846 87.8264 45.6449 87.827 46.1052 87.8273C46.8988 87.8275 47.6924 87.8263 48.486 87.8241C49.6334 87.8209 50.7807 87.8199 51.9281 87.8194C53.7906 87.8185 55.653 87.816 57.5155 87.8122C59.3224 87.8086 61.1293 87.8059 62.9363 87.8042C63.0481 87.8041 63.1598 87.804 63.275 87.8039C63.8358 87.8034 64.3967 87.8029 64.9576 87.8024C69.5949 87.7984 74.2323 87.7912 78.8696 87.7827C78.8696 84.5545 78.8696 81.3262 78.8696 78.0001C69.4862 78.0001 60.1027 78.0001 50.4349 78.0001C50.4349 77.0101 50.4349 76.0201 50.4349 75.0001C50.6904 74.992 50.946 74.984 51.2093 74.9756C53.6631 74.8379 57.0052 74.4 58.7827 72.5218C60.5848 70.1516 60.4906 66.197 60.5043 63.3771C60.5059 63.0821 60.5084 62.7872 60.5112 62.4922C60.5192 61.6549 60.5263 60.8176 60.5307 59.9803C60.5335 59.4639 60.5381 58.9476 60.5438 58.4313C60.5456 58.2377 60.5468 58.044 60.5472 57.8503C60.5565 54.0066 61.8135 50.4591 64.2609 47.4784C64.4349 47.261 64.6089 47.0437 64.7827 46.8262C64.3881 46.8262 64.2688 47.0572 63.9919 47.3316Z" fill="white"/>
<path d="M10.3914 0.782715C23.6057 0.782715 36.8201 0.782715 50.4348 0.782715C50.4348 1.72967 50.4348 2.67663 50.4348 3.65228C38.2105 3.65228 25.9861 3.65228 13.3914 3.65228C13.3914 6.92358 13.3914 10.1949 13.3914 13.5653C12.4014 13.5653 11.4114 13.5653 10.3914 13.5653C10.3914 9.34706 10.3914 5.1288 10.3914 0.782715Z" fill="#4A8DFF"/>
<path d="M78.8695 77.8696C79.8164 77.8696 80.7634 77.8696 81.739 77.8696C81.739 82.0879 81.739 86.3062 81.739 90.6522C68.5247 90.6522 55.3103 90.6522 41.6956 90.6522C41.6956 89.7053 41.6956 88.7583 41.6956 87.7827C53.9629 87.7827 66.2303 87.7827 78.8695 87.7827C78.8695 84.5114 78.8695 81.2401 78.8695 77.8696Z" fill="#4A8DFF"/>
<path d="M13.261 97.1738C15.4132 97.1738 17.5653 97.1738 19.7827 97.1738C19.7827 97.6903 19.7827 98.2069 19.7827 98.739C19.4855 98.807 19.1883 98.8749 18.8911 98.9428C18.5674 99.119 18.5674 99.119 18.4458 99.5461C18.2779 100.395 18.2868 101.268 18.2664 102.13C18.2503 102.733 18.2341 103.336 18.2175 103.956C20.1975 103.956 22.1775 103.956 24.2175 103.956C24.2124 102.575 24.2124 102.575 24.2058 101.194C24.2054 101.019 24.205 100.845 24.2048 100.67C24.2041 100.581 24.2034 100.492 24.2027 100.401C24.2027 99.864 24.2584 99.407 24.3479 98.8695C23.7884 98.9125 23.2288 98.9556 22.6523 98.9999C22.6523 98.3973 22.6523 97.7947 22.6523 97.1738C24.8045 97.1738 26.9566 97.1738 29.174 97.1738C29.174 97.6903 29.174 98.2069 29.174 98.739C28.8768 98.8197 28.5796 98.9004 28.2824 98.9811C27.9809 99.1073 27.9809 99.1073 27.8546 99.3968C27.7056 99.8951 27.6991 100.371 27.6977 100.886C27.6963 100.996 27.695 101.105 27.6937 101.218C27.6897 101.579 27.6874 101.939 27.6852 102.3C27.6828 102.551 27.6802 102.801 27.6776 103.052C27.6709 103.71 27.6657 104.369 27.6609 105.027C27.6556 105.7 27.649 106.372 27.6424 107.044C27.6298 108.363 27.6188 109.681 27.6088 111C28.1253 111 28.6419 111 29.174 111C29.174 111.603 29.174 112.205 29.174 112.826C27.0219 112.826 24.8697 112.826 22.6523 112.826C22.6523 112.309 22.6523 111.793 22.6523 111.261C22.9495 111.176 23.2467 111.091 23.5439 111.006C23.9095 110.829 23.948 110.728 24.0871 110.348C24.1178 109.994 24.1356 109.652 24.1411 109.298C24.1436 109.198 24.1461 109.097 24.1487 108.993C24.1565 108.673 24.1626 108.353 24.1686 108.033C24.1736 107.815 24.1787 107.597 24.1839 107.38C24.1964 106.847 24.2074 106.315 24.2175 105.783C24.081 105.792 23.9445 105.801 23.8038 105.811C22.5235 105.894 21.2536 105.93 19.9702 105.921C19.1026 105.917 19.1026 105.917 18.2175 105.913C18.2175 107.592 18.2175 109.27 18.2175 111C18.734 111 19.2506 111 19.7827 111C19.7827 111.603 19.7827 112.205 19.7827 112.826C17.6306 112.826 15.4784 112.826 13.261 112.826C13.261 112.309 13.261 111.793 13.261 111.261C13.7068 111.127 13.7068 111.127 14.1526 110.993C14.4782 110.881 14.4782 110.881 14.6958 110.478C14.8376 109.86 14.8482 109.244 14.853 108.613C14.8549 108.454 14.8549 108.454 14.8569 108.293C14.861 107.945 14.8642 107.598 14.8675 107.251C14.8702 107.009 14.8729 106.768 14.8757 106.526C14.8829 105.892 14.8893 105.258 14.8956 104.623C14.9022 103.975 14.9094 103.327 14.9166 102.68C14.9306 101.41 14.9439 100.14 14.9566 98.8695C14.1173 98.934 14.1173 98.934 13.261 98.9999C13.261 98.3973 13.261 97.7947 13.261 97.1738Z" fill="white"/>
<path d="M46.1304 97.1741C49.3456 96.8476 49.3456 96.8476 50.2291 97.356C50.7498 97.8462 51.0819 98.4536 51.4224 99.0763C51.7377 99.61 52.1428 100.064 52.5461 100.533C52.7005 100.718 52.8543 100.903 53.0077 101.089C53.0806 101.177 53.1534 101.265 53.2285 101.356C53.6333 101.852 54.0183 102.364 54.4058 102.874C54.8465 103.449 55.3084 104.007 55.7721 104.564C56.5114 105.461 57.1865 106.407 57.8695 107.348C57.8708 107.253 57.8722 107.159 57.8736 107.061C57.8864 106.167 57.8998 105.273 57.9138 104.378C57.9209 103.919 57.9279 103.459 57.9344 102.999C57.9418 102.47 57.9502 101.941 57.9587 101.412C57.9608 101.248 57.963 101.084 57.9653 100.914C57.9679 100.76 57.9705 100.606 57.9732 100.448C57.9752 100.313 57.9772 100.178 57.9793 100.039C57.9999 99.6523 57.9999 99.6523 58.1304 98.8697C57.5708 98.9128 57.0112 98.9558 56.4347 99.0002C56.4347 98.3976 56.4347 97.7949 56.4347 97.1741C58.1565 97.1741 59.8782 97.1741 61.6521 97.1741C61.6521 97.6906 61.6521 98.2071 61.6521 98.7393C61.3549 98.8242 61.0577 98.9091 60.7605 98.994C60.4061 99.1655 60.3612 99.292 60.2173 99.6523C60.1774 99.9297 60.1774 99.9297 60.181 100.225C60.1795 100.339 60.1781 100.453 60.1766 100.57C60.1763 100.694 60.176 100.817 60.1757 100.945C60.1744 101.076 60.1731 101.207 60.1718 101.342C60.1677 101.775 60.1655 102.209 60.1633 102.642C60.1609 102.943 60.1583 103.243 60.1557 103.544C60.149 104.334 60.1438 105.125 60.139 105.916C60.1337 106.723 60.1271 107.53 60.1205 108.337C60.1079 109.92 60.0969 111.504 60.0869 113.087C59.7494 113.097 59.4122 113.104 59.0747 113.11C58.9793 113.113 58.884 113.116 58.7858 113.119C58.3678 113.125 58.0631 113.122 57.6934 112.917C57.4786 112.697 57.3264 112.478 57.1684 112.215C57.1066 112.126 57.0449 112.037 56.9812 111.946C56.8549 111.764 56.7312 111.58 56.6102 111.395C56.3516 111.005 56.0635 110.642 55.7744 110.275C55.6674 110.135 55.5605 109.996 55.4539 109.856C55.1213 109.422 54.7839 108.992 54.4456 108.563C53.7421 107.67 53.0438 106.772 52.3464 105.874C52.0156 105.449 51.684 105.023 51.3518 104.599C51.2679 104.491 51.184 104.384 51.0975 104.273C50.9356 104.066 50.7736 103.859 50.6114 103.652C50.5025 103.512 50.5025 103.512 50.3914 103.37C50.3272 103.288 50.263 103.206 50.1969 103.121C50.0434 102.913 50.0434 102.913 49.913 102.652C49.8699 105.407 49.8269 108.162 49.7825 111C50.3421 111 50.9017 111 51.4782 111C51.4782 111.603 51.4782 112.205 51.4782 112.826C49.7565 112.826 48.0347 112.826 46.2608 112.826C46.2608 112.31 46.2608 111.793 46.2608 111.261C46.8419 111.132 46.8419 111.132 47.4347 111C47.6294 110.304 47.7274 109.703 47.7231 108.975C47.723 108.883 47.7228 108.791 47.7226 108.696C47.7218 108.395 47.7191 108.095 47.7165 107.794C47.7157 107.582 47.715 107.371 47.7144 107.159C47.7127 106.604 47.7095 106.049 47.7059 105.494C47.7003 104.608 47.6964 103.721 47.6934 102.834C47.6921 102.527 47.6898 102.219 47.6875 101.912C47.6818 100.89 47.7118 99.8868 47.826 98.8697C46.9867 98.9343 46.9867 98.9343 46.1304 99.0002C46.1304 98.3976 46.1304 97.7949 46.1304 97.1741Z" fill="white"/>
<path d="M75.0868 97.6958C75.0223 97.3084 75.0223 97.3084 74.9564 96.9132C75.559 96.9132 76.1616 96.9132 76.7825 96.9132C76.7825 98.678 76.7825 100.443 76.7825 102.261C76.266 102.261 75.7494 102.261 75.2173 102.261C75.1887 102.151 75.1601 102.04 75.1307 101.927C74.792 100.715 74.4495 99.8032 73.3341 99.1469C72.2325 98.6016 71.1354 98.4171 69.9347 98.7311C68.8841 99.1328 68.1176 99.9474 67.595 100.924C66.6389 103.083 66.5127 105.748 67.2608 108C67.8162 109.352 68.432 110.348 69.7864 110.982C70.345 111.157 70.8362 111.202 71.4184 111.204C71.5541 111.204 71.5541 111.204 71.6926 111.205C72.6527 111.175 73.4635 110.947 74.4347 110.739C74.4347 109.448 74.4347 108.157 74.4347 106.826C73.8751 106.826 73.3155 106.826 72.739 106.826C72.739 106.224 72.739 105.621 72.739 105C74.7621 105 76.7851 105 78.8694 105C78.8694 105.517 78.8694 106.033 78.8694 106.565C78.2884 106.694 78.2884 106.694 77.6955 106.826C77.4297 107.939 77.3791 109.03 77.3531 110.169C77.3482 110.351 77.3431 110.534 77.3379 110.716C77.3257 111.159 77.3145 111.601 77.3042 112.044C77.1707 112.067 77.0373 112.09 76.8997 112.114C75.7527 112.317 74.6268 112.571 73.4993 112.864C71.0975 113.484 68.7396 113.378 66.5209 112.192C64.7171 111.034 63.6975 109.27 63.2173 107.218C62.7469 104.474 63.2836 101.787 64.8839 99.499C67.378 96.3298 71.627 96.1297 75.0868 97.6958Z" fill="white"/>
<path d="M36.739 96.7827C37.2986 96.7827 37.8582 96.7827 38.4347 96.7827C38.8342 97.552 39.1668 98.3289 39.4761 99.1382C39.5248 99.2642 39.5734 99.3902 39.6236 99.52C39.7821 99.9308 39.9399 100.342 40.0977 100.753C40.2634 101.183 40.4292 101.613 40.5951 102.043C40.7078 102.335 40.8205 102.627 40.9331 102.919C41.3034 103.88 41.6767 104.839 42.0527 105.796C42.1009 105.919 42.1491 106.042 42.1988 106.169C42.3827 106.638 42.5667 107.107 42.7515 107.576C42.8769 107.894 43.0019 108.212 43.1268 108.531C43.1632 108.623 43.1996 108.715 43.2372 108.81C43.5196 109.532 43.7825 110.215 43.7825 111C44.2129 111 44.6434 111 45.0869 111C45.0869 111.603 45.0869 112.205 45.0869 112.826C43.0638 112.826 41.0408 112.826 38.9564 112.826C38.9564 112.31 38.9564 111.793 38.9564 111.261C39.2577 111.132 39.559 111.003 39.8695 110.87C39.9401 109.793 39.7527 109.375 39.3477 108.261C37.7982 108.261 36.2486 108.261 34.6521 108.261C34.5229 108.691 34.3938 109.122 34.2608 109.565C34.0981 110.006 33.9188 110.436 33.739 110.87C34.2125 110.913 34.686 110.956 35.1738 111C35.1738 111.603 35.1738 112.205 35.1738 112.826C33.5382 112.826 31.9025 112.826 30.2173 112.826C30.2173 112.267 30.2173 111.707 30.2173 111.131C30.4338 111.088 30.6504 111.046 30.8669 111.003C31.8319 110.514 32.1072 109.345 32.4479 108.404C32.5101 108.236 32.5723 108.068 32.6347 107.9C32.8312 107.369 33.0244 106.837 33.2173 106.304C33.2801 106.132 33.3428 105.959 33.4057 105.787C33.8733 104.5 34.3348 103.212 34.7955 101.923C34.9823 101.401 35.1695 100.878 35.3572 100.356C35.4425 100.118 35.5274 99.8795 35.6123 99.6413C35.9592 98.675 36.3372 97.7276 36.739 96.7827ZM36.8695 101.217C36.8498 101.289 36.8302 101.36 36.81 101.434C36.4308 102.806 36.036 104.165 35.5429 105.501C35.3653 105.956 35.3653 105.956 35.3042 106.435C36.4234 106.435 37.5425 106.435 38.6955 106.435C38.5871 105.893 38.4509 105.408 38.2762 104.886C38.2481 104.802 38.2199 104.717 38.1909 104.63C38.1316 104.453 38.072 104.275 38.0123 104.098C37.9214 103.827 37.8312 103.557 37.741 103.286C37.3939 102.243 37.3939 102.243 36.9999 101.217C36.9569 101.217 36.9138 101.217 36.8695 101.217Z" fill="white"/>
</svg>
