<svg width="81" height="98" viewBox="0 0 81 98" fill="none" xmlns="http://www.w3.org/2000/svg">
<path d="M9.47729 0.0229492C32.8773 0.0229492 56.2773 0.0229492 80.3864 0.0229492C80.3864 0.847949 80.3864 1.67295 80.3864 2.52295C80.111 2.66065 79.8901 2.6749 79.5834 2.70628C76.0811 2.99522 76.0811 2.99522 73.1137 4.68204C71.3762 6.98922 71.618 10.8586 71.6212 13.5993C71.621 13.7792 71.6207 13.959 71.6204 14.1389C71.6197 14.6272 71.6197 15.1155 71.6199 15.6038C71.6199 16.1328 71.6193 16.6619 71.6187 17.1909C71.6178 18.2252 71.6175 19.2596 71.6174 20.294C71.6173 21.1359 71.6171 21.9779 71.6168 22.8198C71.6158 25.2133 71.6152 27.6068 71.6153 30.0003C71.6153 30.1291 71.6153 30.2578 71.6153 30.3905C71.6153 30.5194 71.6153 30.6483 71.6153 30.7811C71.6154 32.8676 71.6143 34.9541 71.6127 37.0406C71.6111 39.1892 71.6103 41.3379 71.6104 43.4865C71.6104 44.6903 71.6101 45.894 71.6089 47.0978C71.6078 48.1232 71.6076 49.1486 71.6084 50.174C71.6087 50.6957 71.6088 51.2173 71.6078 51.739C71.2801 57.4836 71.2801 57.4836 73.0937 62.6512C75.0207 64.3084 77.9956 64.4283 80.3864 64.682C80.3864 65.5445 80.3864 66.407 80.3864 67.2957C77.4989 67.2957 74.6114 67.2957 71.6364 67.2957C71.6364 70.9332 71.6364 74.5707 71.6364 78.3184C48.2364 78.3184 24.8364 78.3184 0.727295 78.3184C0.727295 77.4934 0.727295 76.6684 0.727295 75.8184C0.900732 75.7903 1.07417 75.7621 1.25286 75.7332C1.45082 75.6997 1.64877 75.6662 1.84668 75.6325C2.02158 75.6029 2.19655 75.5737 2.37158 75.5449C5.54389 75.1062 5.54389 75.1062 8.07903 73.3277C9.81 70.5654 9.39771 66.5393 9.39337 63.4172C9.39285 62.863 9.39365 62.3087 9.39427 61.7545C9.39528 60.6719 9.39507 59.5893 9.39441 58.5066C9.39389 57.6261 9.39382 56.7455 9.39407 55.8649C9.39412 55.6762 9.39412 55.6762 9.39418 55.4837C9.39425 55.228 9.39432 54.9724 9.3944 54.7167C9.39504 52.3253 9.3943 49.9338 9.39308 47.5423C9.39206 45.4945 9.39224 43.4467 9.39329 41.3989C9.39451 39.0152 9.39498 36.6315 9.39428 34.2478C9.39421 33.9932 9.39414 33.7386 9.39407 33.484C9.39404 33.3587 9.394 33.2335 9.39396 33.1044C9.39377 32.2258 9.3941 31.3472 9.39463 30.4686C9.39527 29.3965 9.39509 28.3245 9.39389 27.2525C9.39329 26.7065 9.39305 26.1606 9.39381 25.6146C9.61165 20.5317 9.61165 20.5317 7.97871 15.8823C6.09312 14.1643 3.15176 13.9532 0.727295 13.6593C0.727295 12.8343 0.727295 12.0093 0.727295 11.1593C3.61479 11.1593 6.50229 11.1593 9.47729 11.1593C9.47729 7.48431 9.47729 3.80931 9.47729 0.0229492ZM12.0909 2.52295C12.0909 5.37295 12.0909 8.22295 12.0909 11.1593C20.2284 11.1593 28.3659 11.1593 36.75 11.1593C36.75 11.9843 36.75 12.8093 36.75 13.6593C36.4922 13.671 36.2344 13.6827 35.9688 13.6948C33.851 13.8182 31.0082 14.1254 29.4418 15.6977C27.405 18.1943 27.8707 22.8651 27.8553 25.8948C27.8547 26.0142 27.854 26.1336 27.8533 26.2566C27.8475 27.3772 27.8439 28.4978 27.8431 29.6184C27.8425 30.2382 27.8398 30.858 27.8357 31.4778C27.8346 31.7102 27.8343 31.9427 27.8349 32.1752C27.8428 35.3413 26.9426 38.2916 24.9851 40.81C24.7963 41.0284 24.7963 41.0284 24.8182 41.2729C25.1254 41.1245 25.4137 40.9625 25.7007 40.778C27.7067 39.5068 30.0208 38.3086 32.4562 38.3027C32.5956 38.3021 32.735 38.3015 32.8785 38.3008C33.0315 38.3007 33.1844 38.3006 33.3374 38.3005C33.4997 38.2999 33.662 38.2994 33.8242 38.2987C34.173 38.2975 34.5218 38.2965 34.8706 38.2958C35.4233 38.2945 35.9761 38.2922 36.5288 38.2897C38.1004 38.2827 39.672 38.2766 41.2436 38.2728C42.1122 38.2707 42.9807 38.2674 43.8492 38.2628C44.308 38.2604 44.7668 38.2586 45.2256 38.2584C45.6579 38.2581 46.0902 38.2563 46.5226 38.2533C46.7544 38.2521 46.9863 38.2526 47.2182 38.2531C49.0052 38.2372 50.4011 37.8913 51.7123 36.6627C52.7639 35.567 53.132 34.351 53.1288 32.85C53.1291 32.759 53.1294 32.6679 53.1296 32.574C53.1303 32.2697 53.1303 31.9655 53.1302 31.6612C53.1305 31.4425 53.1309 31.2239 53.1313 31.0052C53.1323 30.4113 53.1326 29.8174 53.1327 29.2235C53.1327 28.8514 53.133 28.4794 53.1333 28.1073C53.1343 26.806 53.1348 25.5048 53.1347 24.2035C53.1346 22.9962 53.1358 21.7889 53.1376 20.5816C53.1391 19.5415 53.1397 18.5014 53.1397 17.4613C53.1396 16.8418 53.1399 16.2223 53.1412 15.6028C53.4669 9.75116 53.4669 9.75116 51.4246 4.54355C50.7833 4.00891 50.0985 3.67 49.3068 3.41784C49.1739 3.37471 49.1739 3.37471 49.0383 3.33072C48.2484 3.08272 47.4637 2.91626 46.6463 2.78785C46.4427 2.75555 46.2394 2.7217 46.0361 2.68754C44.5725 2.47053 43.109 2.49193 41.6323 2.49657C41.2347 2.49756 40.8372 2.49722 40.4397 2.49705C39.7531 2.49693 39.0665 2.49763 38.3798 2.49892C37.3871 2.50078 36.3944 2.50136 35.4016 2.50164C33.7905 2.50214 32.1794 2.50365 30.5683 2.5058C29.0044 2.50789 27.4405 2.5095 25.8766 2.51046C25.78 2.51052 25.6834 2.51058 25.5838 2.51065C25.0992 2.51094 24.6145 2.51123 24.1298 2.51151C20.1168 2.51386 16.1039 2.51805 12.0909 2.52295ZM56.1747 40.5769C53.771 42.7735 50.4879 43.6747 47.3045 43.6772C47.1432 43.6778 46.9818 43.6783 46.8204 43.679C46.4743 43.6803 46.1282 43.6812 45.7821 43.6819C45.2337 43.6832 44.6852 43.6855 44.1368 43.688C42.5777 43.695 41.0186 43.7012 39.4595 43.7049C38.5974 43.707 37.7352 43.7103 36.873 43.7149C36.4177 43.7173 35.9625 43.7191 35.5072 43.7193C35.0785 43.7196 34.6498 43.7214 34.2211 43.7244C33.991 43.7256 33.7608 43.7251 33.5306 43.7246C31.8393 43.7398 30.519 44.1275 29.2642 45.2928C28.2805 46.3471 27.8733 47.7527 27.8712 49.1692C27.8707 49.3155 27.8702 49.4617 27.8697 49.6125C27.8698 49.7733 27.8698 49.9341 27.8699 50.0949C27.8695 50.2654 27.8691 50.4359 27.8687 50.6065C27.8677 51.0694 27.8674 51.5323 27.8674 51.9952C27.8673 52.286 27.8671 52.5768 27.8668 52.8676C27.8657 53.8867 27.8652 54.9058 27.8653 55.9249C27.8654 56.8665 27.8642 57.8081 27.8624 58.7497C27.8609 59.5634 27.8603 60.3771 27.8604 61.1908C27.8604 61.6743 27.8601 62.1578 27.8589 62.6413C27.5292 68.6219 27.5292 68.6219 29.5909 73.8866C31.5651 75.8607 35.7263 75.8512 38.2885 75.861C38.6551 75.8608 39.0218 75.8597 39.3885 75.858C39.7895 75.8565 40.1906 75.857 40.5916 75.8573C41.283 75.8574 41.9744 75.8564 42.6658 75.8544C43.6654 75.8516 44.665 75.8508 45.6646 75.8504C47.2872 75.8496 48.9098 75.8474 50.5324 75.8441C52.1066 75.841 53.6808 75.8386 55.255 75.8371C55.3524 75.837 55.4498 75.8369 55.5501 75.8369C56.0388 75.8364 56.5274 75.836 57.016 75.8356C61.0561 75.832 65.0963 75.8258 69.1364 75.8184C69.1364 73.0059 69.1364 70.1934 69.1364 67.2957C60.9614 67.2957 52.7864 67.2957 44.3637 67.2957C44.3637 66.4332 44.3637 65.5707 44.3637 64.682C44.5863 64.675 44.809 64.668 45.0384 64.6607C47.1761 64.5407 50.0878 64.1592 51.6364 62.5229C53.2064 60.458 53.1243 57.0127 53.1363 54.556C53.1377 54.299 53.1399 54.042 53.1423 53.785C53.1492 53.0555 53.1554 52.3261 53.1593 51.5966C53.1617 51.1467 53.1657 50.6969 53.1707 50.2471C53.1723 50.0784 53.1733 49.9097 53.1737 49.7409C53.1817 46.3922 54.2769 43.3016 56.4091 40.7048C56.5607 40.5154 56.7122 40.326 56.8637 40.1366C56.5199 40.1366 56.4159 40.3378 56.1747 40.5769Z" fill="#0E121B"/>
<path d="M9.47729 0.0229492C20.9898 0.0229492 32.5023 0.0229492 44.3637 0.0229492C44.3637 0.847949 44.3637 1.67295 44.3637 2.52295C33.7137 2.52295 23.0637 2.52295 12.0909 2.52295C12.0909 5.37295 12.0909 8.22295 12.0909 11.1593C11.2284 11.1593 10.3659 11.1593 9.47729 11.1593C9.47729 7.48431 9.47729 3.80931 9.47729 0.0229492Z" fill="#4A8DFF"/>
<path d="M69.1364 67.1816C69.9614 67.1816 70.7864 67.1816 71.6364 67.1816C71.6364 70.8566 71.6364 74.5316 71.6364 78.318C60.1239 78.318 48.6114 78.318 36.75 78.318C36.75 77.493 36.75 76.668 36.75 75.818C47.4375 75.818 58.125 75.818 69.1364 75.818C69.1364 72.968 69.1364 70.118 69.1364 67.1816Z" fill="#4A8DFF"/>
<path d="M11.9773 84C13.8523 84 15.7273 84 17.6591 84C17.6591 84.45 17.6591 84.9 17.6591 85.3636C17.4002 85.4228 17.1412 85.482 16.8823 85.5412C16.6003 85.6946 16.6003 85.6946 16.4943 86.0668C16.3481 86.8061 16.3558 87.5673 16.3381 88.3182C16.324 88.8432 16.31 89.3682 16.2955 89.9091C18.0205 89.9091 19.7455 89.9091 21.5227 89.9091C21.5183 88.7057 21.5183 88.7057 21.5125 87.5023C21.5122 87.3502 21.5119 87.1981 21.5117 87.046C21.5111 86.9685 21.5105 86.891 21.5099 86.8112C21.5098 86.3437 21.5583 85.9456 21.6364 85.4773C21.1489 85.5148 20.6614 85.5523 20.1591 85.5909C20.1591 85.0659 20.1591 84.5409 20.1591 84C22.0341 84 23.9091 84 25.8409 84C25.8409 84.45 25.8409 84.9 25.8409 85.3636C25.582 85.4339 25.3231 85.5042 25.0641 85.5745C24.8015 85.6845 24.8015 85.6845 24.6915 85.9367C24.5616 86.3708 24.5559 86.7853 24.5547 87.2343C24.5536 87.3297 24.5524 87.4251 24.5512 87.5234C24.5477 87.8376 24.5458 88.1518 24.5439 88.466C24.5418 88.6843 24.5395 88.9026 24.5372 89.1209C24.5314 89.6946 24.5269 90.2683 24.5226 90.842C24.5181 91.4278 24.5123 92.0135 24.5066 92.5993C24.4956 93.748 24.486 94.8967 24.4773 96.0455C24.9273 96.0455 25.3773 96.0455 25.8409 96.0455C25.8409 96.5705 25.8409 97.0955 25.8409 97.6364C23.9659 97.6364 22.0909 97.6364 20.1591 97.6364C20.1591 97.1864 20.1591 96.7364 20.1591 96.2727C20.418 96.1987 20.677 96.1248 20.9359 96.0508C21.2544 95.8967 21.288 95.8089 21.4091 95.4773C21.4359 95.1691 21.4514 94.8714 21.4562 94.5629C21.4584 94.4752 21.4606 94.3876 21.4628 94.2973C21.4696 94.0183 21.4749 93.7393 21.4801 93.4602C21.4845 93.2707 21.4889 93.0811 21.4935 92.8916C21.5043 92.4278 21.5139 91.9639 21.5227 91.5C21.4038 91.5081 21.2849 91.5162 21.1623 91.5246C20.0469 91.5975 18.9405 91.6282 17.8225 91.6207C17.0666 91.6172 17.0666 91.6172 16.2955 91.6136C16.2955 93.0761 16.2955 94.5386 16.2955 96.0455C16.7455 96.0455 17.1955 96.0455 17.6591 96.0455C17.6591 96.5705 17.6591 97.0955 17.6591 97.6364C15.7841 97.6364 13.9091 97.6364 11.9773 97.6364C11.9773 97.1864 11.9773 96.7364 11.9773 96.2727C12.3657 96.1562 12.3657 96.1562 12.7541 96.0397C13.0377 95.9416 13.0377 95.9416 13.2273 95.5909C13.3509 95.0521 13.3601 94.5161 13.3643 93.9659C13.366 93.8277 13.366 93.8277 13.3677 93.6868C13.3712 93.3843 13.3741 93.0818 13.3769 92.7793C13.3792 92.5688 13.3816 92.3583 13.384 92.1478C13.3903 91.5952 13.3959 91.0426 13.4014 90.49C13.4071 89.9256 13.4135 89.3611 13.4197 88.7967C13.4319 87.6902 13.4435 86.5838 13.4546 85.4773C12.7233 85.5335 12.7233 85.5335 11.9773 85.5909C11.9773 85.0659 11.9773 84.5409 11.9773 84Z" fill="#0E121B"/>
<path d="M40.6135 84C43.4147 83.7156 43.4147 83.7156 44.1844 84.1584C44.638 84.5855 44.9274 85.1147 45.224 85.6572C45.4987 86.1221 45.8516 86.5179 46.203 86.9261C46.3375 87.0872 46.4715 87.2486 46.6052 87.4104C46.6686 87.4872 46.7321 87.564 46.7975 87.6432C47.1501 88.0758 47.4856 88.5213 47.8232 88.9658C48.2071 89.4668 48.6096 89.9531 49.0135 90.438C49.6576 91.22 50.2457 92.0442 50.8408 92.8636C50.842 92.7811 50.8431 92.6986 50.8443 92.6137C50.8555 91.8346 50.8672 91.0555 50.8794 90.2764C50.8856 89.876 50.8917 89.4755 50.8973 89.075C50.9038 88.6141 50.9111 88.1532 50.9185 87.6923C50.9204 87.5491 50.9223 87.406 50.9242 87.2585C50.9265 87.1243 50.9288 86.9902 50.9311 86.8519C50.9329 86.7343 50.9346 86.6167 50.9365 86.4956C50.9544 86.1591 50.9544 86.1591 51.0681 85.4772C50.5806 85.5147 50.0931 85.5522 49.5908 85.5909C49.5908 85.0659 49.5908 84.5409 49.5908 84C51.0908 84 52.5908 84 54.1363 84C54.1363 84.45 54.1363 84.9 54.1363 85.3636C53.8773 85.4376 53.6184 85.5116 53.3594 85.5856C53.0507 85.7349 53.0116 85.8451 52.8863 86.1591C52.8514 86.4007 52.8514 86.4007 52.8546 86.6581C52.8533 86.7572 52.8521 86.8563 52.8508 86.9584C52.8505 87.0662 52.8503 87.174 52.85 87.2851C52.8489 87.3993 52.8477 87.5136 52.8466 87.6312C52.843 88.0088 52.8411 88.3863 52.8392 88.7638C52.8371 89.0256 52.8348 89.2874 52.8325 89.5491C52.8267 90.2381 52.8222 90.9271 52.818 91.6161C52.8134 92.3191 52.8076 93.0222 52.8019 93.7252C52.7909 95.1047 52.7813 96.4841 52.7726 97.8636C52.4786 97.8723 52.1848 97.8786 51.8908 97.8837C51.8077 97.8864 51.7246 97.889 51.6391 97.8918C51.275 97.8965 51.0095 97.8942 50.6874 97.715C50.5002 97.524 50.3677 97.3328 50.23 97.1037C50.1762 97.0263 50.1224 96.9488 50.0669 96.8691C49.9569 96.7107 49.8491 96.5508 49.7437 96.3893C49.5184 96.05 49.2674 95.7331 49.0155 95.4133C48.9223 95.2918 48.8292 95.1702 48.7363 95.0484C48.4466 94.6705 48.1526 94.2959 47.8578 93.9218C47.245 93.1437 46.6366 92.3622 46.029 91.5799C45.7408 91.2089 45.4519 90.8384 45.1625 90.4684C45.0894 90.3747 45.0163 90.2811 44.9409 90.1846C44.7999 90.004 44.6588 89.8236 44.5174 89.6433C44.4226 89.5217 44.4226 89.5217 44.3258 89.3977C44.2699 89.3262 44.2139 89.2547 44.1563 89.1811C44.0226 89 44.0226 89 43.909 88.7727C43.8715 91.1727 43.834 93.5727 43.7953 96.0454C44.2828 96.0454 44.7703 96.0454 45.2726 96.0454C45.2726 96.5704 45.2726 97.0954 45.2726 97.6363C43.7726 97.6363 42.2726 97.6363 40.7272 97.6363C40.7272 97.1863 40.7272 96.7363 40.7272 96.2727C41.2334 96.1602 41.2334 96.1602 41.7499 96.0454C41.9195 95.4388 42.0049 94.9156 42.0012 94.281C42.001 94.2009 42.0009 94.1207 42.0007 94.0382C42 93.7761 41.9977 93.5141 41.9954 93.252C41.9946 93.0678 41.9941 92.8835 41.9936 92.6993C41.9921 92.2157 41.9893 91.7322 41.9861 91.2486C41.9812 90.4761 41.9778 89.7036 41.9752 88.9311C41.9741 88.6632 41.9721 88.3955 41.9701 88.1276C41.9652 87.2373 41.9913 86.3633 42.0908 85.4772C41.3595 85.5335 41.3595 85.5335 40.6135 85.5909C40.6135 85.0659 40.6135 84.5409 40.6135 84Z" fill="#0E121B"/>
<path d="M65.841 84.4546C65.7848 84.1171 65.7848 84.1171 65.7274 83.7728C66.2524 83.7728 66.7774 83.7728 67.3183 83.7728C67.3183 85.3103 67.3183 86.8478 67.3183 88.4319C66.8683 88.4319 66.4183 88.4319 65.9546 88.4319C65.9297 88.3358 65.9048 88.2397 65.8792 88.1407C65.5841 87.0853 65.2857 86.2906 64.314 85.7188C63.3543 85.2438 62.3985 85.0831 61.3524 85.3566C60.4371 85.7065 59.7693 86.4163 59.314 87.2671C58.481 89.1478 58.3711 91.4695 59.0228 93.4319C59.5067 94.6097 60.0432 95.477 61.2232 96.03C61.7098 96.1821 62.1378 96.2215 62.645 96.2231C62.7632 96.2235 62.7632 96.2235 62.8839 96.2239C63.7203 96.1982 64.4267 95.9996 65.2728 95.8183C65.2728 94.6933 65.2728 93.5683 65.2728 92.4092C64.7853 92.4092 64.2978 92.4092 63.7956 92.4092C63.7956 91.8842 63.7956 91.3592 63.7956 90.8183C65.5581 90.8183 67.3206 90.8183 69.1365 90.8183C69.1365 91.2683 69.1365 91.7183 69.1365 92.1819C68.6302 92.2944 68.6302 92.2944 68.1137 92.4092C67.8821 93.3789 67.8381 94.3291 67.8154 95.3211C67.8111 95.4802 67.8067 95.6392 67.8021 95.7983C67.7915 96.1837 67.7817 96.5692 67.7728 96.9546C67.6565 96.975 67.5402 96.9953 67.4204 97.0163C66.4211 97.1929 65.4402 97.4139 64.458 97.6689C62.3655 98.2097 60.3113 98.1175 58.3783 97.0838C56.8068 96.0749 55.9185 94.5383 55.5001 92.7501C55.0903 90.3598 55.5579 88.0192 56.9521 86.0256C59.125 83.2646 62.8268 83.0902 65.841 84.4546Z" fill="#0E121B"/>
<path d="M32.4318 83.6592C32.9193 83.6592 33.4068 83.6592 33.9091 83.6592C34.2572 84.3294 34.5469 85.0062 34.8164 85.7113C34.8588 85.8211 34.9012 85.9309 34.9449 86.044C35.083 86.4018 35.2205 86.7599 35.358 87.118C35.5023 87.4926 35.6468 87.8671 35.7913 88.2417C35.8895 88.4963 35.9876 88.7509 36.0858 89.0055C36.4083 89.8421 36.7336 90.6775 37.0612 91.5121C37.1032 91.6192 37.1452 91.7263 37.1884 91.8366C37.3487 92.2452 37.509 92.6537 37.6699 93.062C37.7792 93.3394 37.8881 93.6169 37.9969 93.8944C38.0286 93.9746 38.0604 94.0547 38.0931 94.1373C38.3391 94.7667 38.5682 95.3618 38.5682 96.0455C38.9432 96.0455 39.3182 96.0455 39.7045 96.0455C39.7045 96.5705 39.7045 97.0955 39.7045 97.6365C37.942 97.6365 36.1795 97.6365 34.3636 97.6365C34.3636 97.1865 34.3636 96.7365 34.3636 96.2728C34.6261 96.1603 34.8886 96.0478 35.1591 95.9319C35.2206 94.9935 35.0573 94.6293 34.7045 93.6592C33.3545 93.6592 32.0045 93.6592 30.6136 93.6592C30.5011 94.0342 30.3886 94.4092 30.2727 94.7955C30.1311 95.1793 29.9748 95.5538 29.8182 95.9319C30.2307 95.9694 30.6432 96.0069 31.0682 96.0455C31.0682 96.5705 31.0682 97.0955 31.0682 97.6365C29.6432 97.6365 28.2182 97.6365 26.75 97.6365C26.75 97.149 26.75 96.6615 26.75 96.1592C26.9387 96.1222 27.1273 96.0852 27.316 96.0482C28.1567 95.6221 28.3965 94.6033 28.6934 93.7839C28.7475 93.6375 28.8017 93.4912 28.8561 93.3448C29.0273 92.8822 29.1956 92.4185 29.3636 91.9546C29.4183 91.8042 29.473 91.6538 29.5278 91.5034C29.9351 90.3829 30.3372 89.2604 30.7386 88.1377C30.9014 87.6823 31.0645 87.2271 31.2279 86.772C31.3023 86.5646 31.3762 86.3571 31.4502 86.1496C31.7524 85.3078 32.0817 84.4824 32.4318 83.6592ZM32.5455 87.5228C32.5284 87.585 32.5113 87.6472 32.4937 87.7112C32.1633 88.907 31.8193 90.0906 31.3897 91.255C31.235 91.6511 31.235 91.6511 31.1818 92.0683C32.1568 92.0683 33.1318 92.0683 34.1364 92.0683C34.0419 91.5961 33.9232 91.1738 33.771 90.7188C33.7465 90.6453 33.722 90.5718 33.6967 90.4961C33.645 90.3413 33.5932 90.1866 33.5411 90.0319C33.4619 89.7964 33.3833 89.5607 33.3047 89.325C33.0024 88.4165 33.0024 88.4165 32.6591 87.5228C32.6216 87.5228 32.5841 87.5228 32.5455 87.5228Z" fill="#0E121B"/>
</svg>
