<svg width="26" height="26" viewBox="0 0 26 26" fill="none" xmlns="http://www.w3.org/2000/svg">
<g filter="url(#filter0_d_10229_4498)">
<circle cx="13" cy="11" r="8.75" fill="white"/>
<path d="M5.5 11C5.5 6.85786 8.85786 3.5 13 3.5C17.1421 3.5 20.5 6.85786 20.5 11C20.5 15.1421 17.1421 18.5 13 18.5C8.85786 18.5 5.5 15.1421 5.5 11Z" fill="#4A8DFF"/>
<path d="M10.8652 8.0473C10.8651 8.27107 10.7761 8.48564 10.6178 8.64379C10.4595 8.80195 10.2448 8.89074 10.0211 8.89063C9.79729 8.89051 9.58272 8.80151 9.42456 8.6432C9.26641 8.48489 9.17762 8.27023 9.17773 8.04645C9.17785 7.82268 9.26685 7.60811 9.42516 7.44996C9.58347 7.2918 9.79813 7.20301 10.0219 7.20313C10.2457 7.20324 10.4602 7.29224 10.6184 7.45055C10.7766 7.60886 10.8653 7.82352 10.8652 8.0473ZM10.8905 9.51542H9.20305V14.7973H10.8905V9.51542ZM13.5568 9.51542H11.8777V14.7973H13.5399V12.0256C13.5399 10.4815 15.5523 10.3381 15.5523 12.0256V14.7973H17.2187V11.4518C17.2187 8.84886 14.2402 8.94589 13.5399 10.2242L13.5568 9.51542Z" fill="white"/>
</g>
<defs>
<filter id="filter0_d_10229_4498" x="-1" y="-1" width="28" height="28" filterUnits="userSpaceOnUse" color-interpolation-filters="sRGB">
<feFlood flood-opacity="0" result="BackgroundImageFix"/>
<feColorMatrix in="SourceAlpha" type="matrix" values="0 0 0 0 0 0 0 0 0 0 0 0 0 0 0 0 0 0 127 0" result="hardAlpha"/>
<feOffset dy="2"/>
<feGaussianBlur stdDeviation="2"/>
<feColorMatrix type="matrix" values="0 0 0 0 0.105882 0 0 0 0 0.109804 0 0 0 0 0.113725 0 0 0 0.04 0"/>
<feBlend mode="normal" in2="BackgroundImageFix" result="effect1_dropShadow_10229_4498"/>
<feBlend mode="normal" in="SourceGraphic" in2="effect1_dropShadow_10229_4498" result="shape"/>
</filter>
</defs>
</svg>
