<svg width="26" height="25" viewBox="0 0 26 25" fill="none" xmlns="http://www.w3.org/2000/svg">
<path d="M0.124023 12.6016V10.9141C0.124023 9.39062 0.540039 8.22754 1.37207 7.4248C2.2041 6.61621 3.40527 6.21191 4.97559 6.21191H9.00098C9.9209 6.1123 10.8877 5.95117 11.9014 5.72852C12.9209 5.5 13.9463 5.21289 14.9775 4.86719C16.0146 4.52148 17.0195 4.12012 17.9922 3.66309C18.9707 3.20605 19.8789 2.69922 20.7168 2.14258V4.48047C19.8613 5.01953 18.9619 5.50293 18.0186 5.93066C17.0752 6.35254 16.0967 6.72168 15.083 7.03809C14.0752 7.35449 13.0439 7.61816 11.9893 7.8291C10.9346 8.03418 9.86816 8.18945 8.79004 8.29492H4.97559C3.98535 8.29492 3.27637 8.49707 2.84863 8.90137C2.4209 9.30566 2.20703 9.97656 2.20703 10.9141V12.6016C2.20703 13.5332 2.4209 14.2012 2.84863 14.6055C3.27637 15.0098 3.98535 15.2119 4.97559 15.2119H8.88672C9.94727 15.3232 10.9961 15.4844 12.0332 15.6953C13.0762 15.9004 14.0957 16.1582 15.0918 16.4688C16.0938 16.7793 17.0635 17.1484 18.001 17.5762C18.9385 18.0039 19.8438 18.4902 20.7168 19.0352V21.3643C19.8203 20.79 18.8887 20.2773 17.9219 19.8262C16.9609 19.375 15.9766 18.9824 14.9688 18.6484C13.9668 18.3086 12.959 18.0273 11.9453 17.8047C10.9316 17.582 9.92676 17.4121 8.93066 17.2949H4.97559C3.40527 17.2949 2.2041 16.8936 1.37207 16.0908C0.540039 15.2822 0.124023 14.1191 0.124023 12.6016ZM10.9785 16.8115L11.8926 21.54C12.0391 22.3135 11.957 22.9609 11.6465 23.4824C11.3359 24.0098 10.8906 24.3701 10.3105 24.5635C9.90625 24.7041 9.4668 24.7568 8.99219 24.7217C8.51758 24.6924 8.05469 24.5195 7.60352 24.2031C7.15234 23.8867 6.76562 23.374 6.44336 22.665L3.70996 16.6006H5.85449L8.45605 22.1553C8.57324 22.4072 8.73145 22.5654 8.93066 22.6299C9.12988 22.6943 9.31445 22.6973 9.48438 22.6387C9.64844 22.5859 9.77734 22.4863 9.87109 22.3398C9.9707 22.1934 10 22.0029 9.95898 21.7686L8.9834 16.8115H10.9785ZM7.30469 7.04688H9.39648V16.4688H7.30469V7.04688ZM19.9434 20.0195V3.41699C19.9434 2.84277 20.0693 2.33301 20.3213 1.8877C20.5791 1.44238 20.9307 1.09375 21.376 0.841797C21.8213 0.583984 22.334 0.455078 22.9141 0.455078C23.4883 0.455078 23.998 0.583984 24.4434 0.841797C24.8887 1.09375 25.2373 1.44238 25.4893 1.8877C25.7412 2.33301 25.8672 2.84277 25.8672 3.41699V20.0195C25.8672 20.5996 25.7412 21.1123 25.4893 21.5576C25.2373 22.0029 24.8887 22.3516 24.4434 22.6035C23.998 22.8555 23.4883 22.9814 22.9141 22.9814C22.334 22.9814 21.8213 22.8555 21.376 22.6035C20.9307 22.3516 20.5791 22.0029 20.3213 21.5576C20.0693 21.1123 19.9434 20.5996 19.9434 20.0195ZM22.0439 20.0195C22.0439 20.2832 22.123 20.4941 22.2812 20.6523C22.4395 20.8105 22.6504 20.8896 22.9141 20.8896C23.1719 20.8896 23.3799 20.8105 23.5381 20.6523C23.7021 20.4941 23.7842 20.2832 23.7842 20.0195V3.41699C23.7842 3.15918 23.7021 2.94824 23.5381 2.78418C23.3799 2.62012 23.1719 2.53809 22.9141 2.53809C22.6504 2.53809 22.4395 2.62012 22.2812 2.78418C22.123 2.94824 22.0439 3.15918 22.0439 3.41699V20.0195Z" fill="#4A8DFF"/>
</svg>
